<?xml version="1.0" encoding="UTF-8"?>
<svg id="Capa_2" data-name="Capa 2" xmlns="http://www.w3.org/2000/svg" viewBox="0 0 141.73 141.73">
  <defs>
    <style>
      .cls-1 {
        fill: #1d1d1b;
      }

      .cls-1, .cls-2 {
        stroke-width: 0px;
      }

      .cls-2 {
        fill: #fff;
      }
    </style>
  </defs>
  <rect class="cls-1" x="-3.97" y="-6.87" width="149.67" height="155.46" rx="16.22" ry="16.22"/>
  <g>
    <path class="cls-2" d="M26.15,82.22c.79-1.2,1.68-2.23,2.67-3.1s2.05-1.6,3.18-2.18c-2.43-.92-4.57-2.1-6.44-3.54-1.86-1.44-3.43-3.07-4.69-4.9-1.26-1.83-2.22-3.82-2.87-5.97-.65-2.15-.97-4.44-.97-6.87,0-3.18.55-6.12,1.64-8.82,1.09-2.7,2.85-5.04,5.26-7.03s5.52-3.53,9.33-4.64c3.81-1.11,8.42-1.67,13.82-1.67h24.31v74.72h-17.33v-27.64s-4.41,0-4.41,0c-1.33,0-2.36.21-3.08.64s-1.37,1.1-1.95,2.02l-12.41,21.69c-1.26,2.19-3.35,3.28-6.26,3.28h-15.69s15.9-26,15.9-26ZM54.04,68.63v-22.15s-6.97,0-6.97,0c-4.48,0-7.79.92-9.92,2.77-2.13,1.84-3.21,4.41-3.21,7.69,0,1.64.24,3.17.72,4.59.48,1.42,1.25,2.66,2.31,3.72,1.06,1.06,2.42,1.89,4.08,2.49,1.66.6,3.67.9,6.03.9h6.97Z"/>
    <path class="cls-2" d="M100.82,46.84v17.43h23.49v12.82h-23.49v17.79h30.67v13.33h-48.1V33.51h48.1v13.33h-30.67Z"/>
  </g>
</svg>