<?xml version="1.0" encoding="UTF-8"?>
<svg id="Capa_2" data-name="Capa 2" xmlns="http://www.w3.org/2000/svg" viewBox="0 0 566.93 141.73">
  <defs>
    <style>
      .cls-1 {
        fill: #fffaef;
        stroke-width: 0px;
      }
    </style>
  </defs>
  <path class="cls-1" d="M42.6,81.89c.79-1.2,1.69-2.25,2.69-3.13,1-.88,2.07-1.61,3.2-2.19-2.44-.93-4.61-2.12-6.48-3.56-1.88-1.45-3.45-3.09-4.73-4.93-1.27-1.84-2.24-3.85-2.89-6.02-.65-2.17-.98-4.48-.98-6.92,0-3.2.55-6.16,1.65-8.88,1.1-2.72,2.87-5.08,5.29-7.08,2.43-2,5.56-3.56,9.4-4.68,3.84-1.12,8.48-1.68,13.92-1.68h24.48v75.26h-17.46v-27.84s-4.44,0-4.44,0c-1.34,0-2.38.21-3.1.65-.72.43-1.38,1.11-1.96,2.04l-12.5,21.85c-1.27,2.2-3.38,3.31-6.3,3.31h-15.81s16.01-26.19,16.01-26.19ZM70.7,68.21v-22.32s-7.02,0-7.02,0c-4.51,0-7.84.93-10,2.79-2.15,1.86-3.23,4.44-3.23,7.75,0,1.65.24,3.19.72,4.62.48,1.43,1.26,2.68,2.32,3.74s2.44,1.9,4.11,2.51c1.67.6,3.69.9,6.07.9h7.02Z"/>
  <path class="cls-1" d="M229.28,32.82l-30.17,75.26h-15.81l-30.17-75.26h14.05c1.51,0,2.74.35,3.67,1.06.93.71,1.64,1.61,2.12,2.71l14.57,40.29c.69,1.76,1.36,3.68,2.01,5.76.65,2.09,1.27,4.26,1.86,6.53.48-2.27,1.02-4.45,1.63-6.53.6-2.08,1.25-4,1.94-5.76l14.46-40.29c.38-.96,1.06-1.83,2.04-2.61.98-.78,2.19-1.16,3.64-1.16h14.15Z"/>
  <path class="cls-1" d="M266.63,94.29c2.34,0,4.43-.39,6.28-1.16,1.84-.77,3.4-1.89,4.68-3.33,1.27-1.45,2.25-3.21,2.92-5.29.67-2.08,1.01-4.45,1.01-7.1v-44.58h17.46v44.58c0,4.62-.75,8.85-2.25,12.71-1.5,3.86-3.64,7.18-6.43,9.97-2.79,2.79-6.18,4.96-10.17,6.51-4,1.55-8.49,2.32-13.48,2.32s-9.54-.77-13.53-2.32c-4-1.55-7.39-3.72-10.18-6.51-2.79-2.79-4.92-6.11-6.4-9.97-1.48-3.86-2.22-8.09-2.22-12.71v-44.58h17.46v44.53c0,2.65.33,5.02,1.01,7.1.67,2.09,1.64,3.86,2.92,5.32,1.27,1.46,2.83,2.58,4.67,3.36,1.84.78,3.93,1.16,6.28,1.16Z"/>
  <path class="cls-1" d="M330.16,46.25v17.56h23.66v12.91h-23.66v17.92h30.89v13.43h-48.45V32.82h48.45v13.43h-30.89Z"/>
  <path class="cls-1" d="M417.15,94.14v13.95h-45.35V32.82h17.46v61.31h27.89Z"/>
  <path class="cls-1" d="M471.33,46.67h-21.18v61.42h-17.46v-61.42h-21.18v-13.84h59.82v13.84Z"/>
  <path class="cls-1" d="M540.34,108.08h-13.53c-1.52,0-2.74-.35-3.67-1.06-.93-.7-1.64-1.61-2.12-2.71l-4.44-13.12h-28.62l-4.44,13.12c-.38.96-1.06,1.83-2.04,2.61-.98.78-2.2,1.16-3.64,1.16h-13.64l29.13-75.26h17.87l29.13,75.26ZM512.61,79.31l-6.97-20.61c-.52-1.31-1.07-2.85-1.65-4.62-.59-1.77-1.17-3.69-1.76-5.76-.52,2.1-1.07,4.05-1.65,5.84-.59,1.79-1.14,3.34-1.65,4.65l-6.92,20.51h20.61Z"/>
  <path class="cls-1" d="M117.81,46.25v17.56h23.66v12.91h-23.66v17.92h30.89v13.43h-48.45V32.82h48.45v13.43h-30.89Z"/>
</svg>