<?xml version="1.0" encoding="UTF-8"?>
<svg id="Capa_2" data-name="Capa 2" xmlns="http://www.w3.org/2000/svg" viewBox="0 0 141.73 141.73">
  <defs>
    <style>
      .cls-1 {
        fill: #fffaef;
        stroke-width: 0px;
      }
    </style>
  </defs>
  <path class="cls-1" d="M111.94,134.65H29.33c-.48-.18-.94-.42-1.43-.54-9.72-2.39-16.2-8.36-19.59-17.72-.47-1.3-.81-2.64-1.22-3.97,0-27.53,0-55.05,0-82.58.16-.3.39-.59.47-.91,2.99-13.1,13.19-21.31,26.51-21.31,24.53,0,49.07-.01,73.6,0,14.85,0,26.5,11.65,26.51,26.49.01,24.7.01,49.4,0,74.1,0,11.48-7.16,21.45-18,25.13-1.4.47-2.82.88-4.24,1.31ZM60.05,113.26h15.99v-42.2h14.45c.42-5.35.82-10.43,1.26-15.88h-15.82c0-1.78,0-3.19,0-4.59,0-4.53,1.4-5.9,6.03-5.92,3.23-.01,6.46,0,9.65,0v-15.87c-4.87,0-9.53-.04-14.2.02-1.49.02-2.98.27-4.47.47-6.46.84-10.95,4.55-12.24,10.36-.47,2.13-.57,4.36-.65,6.55-.11,2.96-.03,5.92-.03,9.17h-10.45v15.82h10.46v42.08Z"/>
</svg>