<?xml version="1.0" encoding="UTF-8"?>
<svg id="Capa_2" data-name="Capa 2" xmlns="http://www.w3.org/2000/svg" viewBox="0 0 141.73 141.73">
  <defs>
    <style>
      .cls-1 {
        fill: #fffaef;
        stroke-width: 0px;
      }
    </style>
  </defs>
  <path class="cls-1" d="M134.65,29.79v82.61c-.18.48-.42.94-.54,1.43-2.36,9.61-8.23,16.08-17.47,19.5-1.38.51-2.81.88-4.22,1.31H29.84c-.3-.16-.59-.39-.92-.47-13.1-3-21.31-13.19-21.31-26.51,0-24.53-.01-49.07,0-73.6,0-14.85,11.65-26.5,26.5-26.51,24.7-.01,49.4-.01,74.1,0,11.48,0,21.45,7.17,25.12,18,.47,1.4.88,2.82,1.31,4.23ZM28.39,70.95c.3,0,.59.02.89.02,0,6.61-.24,13.24.05,19.84.55,12.48,9.53,21.7,21.98,22.06,13.21.38,26.45.39,39.66,0,12.44-.36,21.59-9.61,21.93-22.08.35-13.13.35-26.28,0-39.41-.34-12.45-9.5-21.69-21.95-22.06-13.21-.38-26.45-.36-39.66,0-11.41.31-19.82,7.73-21.41,18.96-1.06,7.48-1.03,15.11-1.48,22.67Z"/>
  <path class="cls-1" d="M106.33,71.19c-.42,7.21-.37,14.48-1.38,21.6-1.11,7.88-6.58,12.47-14.6,12.64-12.77.26-25.55.27-38.33,0-8.89-.18-15-6.21-15.21-15.09-.3-12.77-.28-25.57-.01-38.34.19-9.01,6.31-15.05,15.35-15.23,12.59-.25,25.2-.24,37.8,0,9.27.17,15.21,6.3,15.52,15.64.21,6.25.04,12.52.04,18.77l.81.02ZM92.84,71.04c-.02-11.9-9.85-21.68-21.77-21.66-11.89.02-21.67,9.86-21.65,21.78.02,11.9,9.85,21.68,21.77,21.66,11.89-.02,21.67-9.85,21.65-21.78ZM98.69,48.46c-.01-2.83-2.22-4.99-5.06-4.94-2.7.05-4.88,2.19-4.95,4.87-.07,2.65,2.35,5.14,5.02,5.16,2.75.02,5.01-2.27,5-5.09Z"/>
  <path class="cls-1" d="M85.36,71.13c-.02,7.78-6.63,14.3-14.39,14.2-7.68-.1-14.08-6.59-14.07-14.27.02-7.78,6.63-14.3,14.39-14.2,7.68.1,14.08,6.6,14.07,14.27Z"/>
</svg>