<?xml version="1.0" encoding="UTF-8"?>
<svg id="Capa_2" data-name="Capa 2" xmlns="http://www.w3.org/2000/svg" viewBox="0 0 141.73 141.73">
  <defs>
    <style>
      .cls-1 {
        fill: #fffaef;
        stroke-width: 0px;
      }
    </style>
  </defs>
  <path class="cls-1" d="M112.41,134.65H29.84c-.3-.16-.59-.39-.92-.47-13.1-3-21.31-13.19-21.31-26.51,0-24.53-.01-49.07,0-73.6,0-14.85,11.65-26.5,26.5-26.51,24.7-.01,49.4-.01,74.1,0,11.48,0,21.45,7.17,25.12,18,.47,1.4.88,2.82,1.31,4.23v82.61c-.18.48-.42.94-.54,1.43-2.36,9.61-8.23,16.08-17.47,19.5-1.38.51-2.81.88-4.22,1.31ZM76.42,108.05c0-1.27,0-2.24,0-3.21,0-9.17-.08-18.35.03-27.52.09-7.51,6.19-12.84,12.92-11.51,4.74.94,8.15,5.64,8.19,11.54.06,9.26.02,18.53.02,27.79,0,.94,0,1.88,0,2.85h15.89c0-11.2.03-22.21-.02-33.23-.01-2.64-.18-5.29-.51-7.9-1.07-8.39-6.98-15.05-14.64-16.4-8.47-1.5-15.68.73-21.15,7.65-.12.15-.39.19-.81.37v-8.41h-15.62v57.98h15.7ZM49.77,108.05v-57.92h-15.57v57.92h15.57ZM51.13,33.77c-.03-5.11-4.21-9.31-9.21-9.24-5.04.07-9.05,4.27-9.02,9.43.03,5.21,4.01,9.16,9.21,9.13,5.16-.03,9.05-4.05,9.02-9.31Z"/>
</svg>