<?xml version="1.0" encoding="UTF-8"?>
<svg id="Capa_2" data-name="Capa 2" xmlns="http://www.w3.org/2000/svg" viewBox="0 0 141.73 141.73">
  <defs>
    <style>
      .cls-1 {
        fill: #fffaef;
        stroke-width: 0px;
      }
    </style>
  </defs>
  <path class="cls-1" d="M111.94,134.65H29.33c-.48-.18-.94-.42-1.43-.54-9.72-2.39-16.2-8.36-19.59-17.72-.47-1.3-.81-2.64-1.22-3.97,0-27.53,0-55.05,0-82.58.16-.3.39-.59.47-.91,2.99-13.1,13.19-21.31,26.51-21.31,24.53,0,49.07-.01,73.6,0,14.85,0,26.5,11.65,26.51,26.49.01,24.7.01,49.4,0,74.1,0,11.48-7.16,21.45-18,25.13-1.4.47-2.82.88-4.24,1.31ZM70.63,39.08c-9.53.42-19.22.66-28.89,1.32-6.61.45-10.57,3.93-11.8,10.53-2.41,13.01-2.46,26.14-.22,39.16,1.4,8.12,4.76,10.94,12.88,11.88,4.19.49,8.44.67,12.67.63,14.8-.15,29.61-.3,44.4-.77,5.88-.19,9.97-3.54,11.29-9.38.94-4.18,1.48-8.49,1.75-12.77.59-9.51.63-19.04-1.3-28.43-1.42-6.91-5.11-10.36-12.08-10.86-9.49-.68-19.01-.89-28.7-1.31Z"/>
  <path class="cls-1" d="M60.14,57c9.5,4.74,18.61,9.28,28.26,14.1-9.62,4.82-18.82,9.43-28.26,14.16v-28.26Z"/>
</svg>