<?xml version="1.0" encoding="UTF-8"?>
<svg id="uuid-860a9ef4-131a-411c-a774-fdb5231a42b0" data-name="Capa 2" xmlns="http://www.w3.org/2000/svg" viewBox="0 0 86.21 92">
  <defs>
    <style>
      .uuid-59fc4576-4388-4371-9869-424acbb2bdfb {
        fill: #fff;
        stroke-width: 0px;
      }
    </style>
  </defs>
  <g id="uuid-b3d359e5-4847-4d09-8c25-66239c01751a" data-name="Capa 2">
    <g>
      <path class="uuid-59fc4576-4388-4371-9869-424acbb2bdfb" d="M40.21,0h-3C21.91,0,8.36,7.47,0,18.96,8.25,8.63,20.94,2,35.18,2h3c24.85,0,45,20.15,45,45s-20.15,45-45,45h2.02c25.41,0,46-20.59,46-46S65.61,0,40.21,0Z"/>
      <g>
        <path class="uuid-59fc4576-4388-4371-9869-424acbb2bdfb" d="M9.81,53.16c.43-.65.91-1.21,1.45-1.68s1.11-.87,1.72-1.18c-1.32-.5-2.48-1.14-3.49-1.92-1.01-.78-1.86-1.66-2.54-2.65-.69-.99-1.2-2.07-1.56-3.24-.35-1.17-.53-2.41-.53-3.72,0-1.72.3-3.32.89-4.78.59-1.46,1.54-2.73,2.85-3.81s2.99-1.91,5.06-2.52c2.07-.6,4.56-.9,7.49-.9h13.17v40.49h-9.39v-14.98s-2.39,0-2.39,0c-.72,0-1.28.12-1.67.35s-.74.6-1.06,1.1l-6.73,11.76c-.69,1.19-1.82,1.78-3.39,1.78H1.19s8.62-14.09,8.62-14.09ZM24.93,45.79v-12.01s-3.78,0-3.78,0c-2.43,0-4.22.5-5.38,1.5-1.16,1-1.74,2.39-1.74,4.17,0,.89.13,1.72.39,2.49.26.77.68,1.44,1.25,2.01s1.31,1.02,2.21,1.35c.9.32,1.99.49,3.27.49h3.78Z"/>
        <path class="uuid-59fc4576-4388-4371-9869-424acbb2bdfb" d="M50.28,33.98v9.45h12.73v6.95h-12.73v9.64h16.62v7.23h-26.07V26.75h26.07v7.23h-16.62Z"/>
      </g>
    </g>
  </g>
</svg>